<?xml version="1.0" encoding="UTF-8"?>
<svg width="22px" height="22px" viewBox="0 0 22 22" version="1.1" xmlns="http://www.w3.org/2000/svg" xmlns:xlink="http://www.w3.org/1999/xlink">
    <title>切片</title>
    <g id="页面-1" stroke="none" stroke-width="1" fill="none" fill-rule="evenodd">
        <g id="交易" transform="translate(-205.000000, -677.000000)" fill="#FC740C">
            <g id="编组-5" transform="translate(149.000000, 677.000000)">
                <g id="1.基础组件/4.icon图标/基础图标/前往-居中" transform="translate(56.000000, 0.000000)">
                    <path d="M7.52727799,10.542783 L13.5282568,4.77146907 C13.7890046,4.52062142 14.210358,4.52062142 14.4711058,4.77146907 C14.7318536,5.02231673 14.7318536,5.427672 14.4711058,5.67851967 L8.93693668,10.9995798 L14.4710554,16.3223892 C14.7318704,16.5732368 14.7318704,16.9785921 14.4710554,17.2294398 C14.3406479,17.3548636 14.1705512,17.4166667 13.9985645,17.4166667 C13.8284677,17.4166667 13.656481,17.3548636 13.5260735,17.2294398 L7.52732838,11.4581259 C7.40877611,11.3441042 7.34411123,11.1981595 7.33333333,11.0493127 L7.33333333,10.9515962 C7.34410804,10.8027493 7.40875626,10.6568046 7.52727799,10.542783 Z" id="前往" transform="translate(11.000000, 11.000000) scale(-1, 1) translate(-11.000000, -11.000000) "></path>
                </g>
            </g>
        </g>
    </g>
</svg>