<?xml version="1.0" encoding="UTF-8"?>
<svg width="44px" height="44px" viewBox="0 0 44 44" version="1.1" xmlns="http://www.w3.org/2000/svg" xmlns:xlink="http://www.w3.org/1999/xlink">
    <title>买入</title>
    <defs>
        <linearGradient x1="1.35135135%" y1="42%" x2="104.054054%" y2="98%" id="linearGradient-1">
            <stop stop-color="#F5643E" offset="0%"></stop>
            <stop stop-color="#F4003F" offset="100%"></stop>
        </linearGradient>
    </defs>
    <g id="页面-1" stroke="none" stroke-width="1" fill="none" fill-rule="evenodd">
        <g id="我的" transform="translate(-40.000000, -251.000000)" fill-rule="nonzero">
            <g id="编组-3" transform="translate(0.000000, 226.000000)">
                <g id="买入" transform="translate(40.000000, 25.000000)">
                    <rect id="矩形" x="0" y="0" width="44" height="44"></rect>
                    <path d="M36.2083333,13.9791667 L30.3645833,13.9791667 L30.3645833,13.3008333 C30.3645833,8.99341667 26.82405,5.5 22.4583333,5.5 C18.0927083,5.5 14.5520833,8.99341667 14.5520833,13.3008333 L14.5520833,13.9791667 L8.70833333,13.9791667 C7.94779333,13.9791667 7.33333333,14.5854339 7.33333333,15.3358333 L5.5,38.06 C5.5,38.8103271 6.11446,39.4166667 6.875,39.4166667 L38.0416667,39.4166667 C38.8021333,39.4166667 39.4166667,38.8103271 39.4166667,38.06 L37.5833333,15.3358333 C37.5833333,14.5854339 36.9688,13.9791667 36.2083333,13.9791667 Z M27.2708333,13.9791667 L17.6458333,13.9791667 L17.6458333,13.3008333 C17.6458333,10.6765335 19.7985333,8.5525 22.4583333,8.5525 C25.1181333,8.5525 27.2708333,10.6765335 27.2708333,13.3008333 L27.2708333,13.9791667 Z" id="形状" fill="url(#linearGradient-1)"></path>
                    <path d="M19.3946095,20.5889885 C19.8479008,20.0749983 20.6353265,20.0229141 21.1533741,20.4726552 C21.619617,20.8774221 21.7087625,21.5507183 21.3914798,22.0560287 L21.2706258,22.217645 L16.3671639,27.7767337 L29.9202716,27.7767337 C30.546058,27.7767337 31.0641295,28.2343036 31.1531525,28.8306263 L31.1666667,29.0133669 C31.1666667,29.634252 30.7054848,30.1482659 30.1044548,30.2365917 L29.9202716,30.25 L14.4664115,30.25 C13.1360629,30.25 12.3941129,28.7730539 13.1138747,27.7289571 L13.2397958,27.5679752 L19.3946095,20.5889885 Z" id="路径" fill="#FFFFFF"></path>
                </g>
            </g>
        </g>
    </g>
</svg>