<?xml version="1.0" encoding="UTF-8"?>
<svg width="24px" height="24px" viewBox="0 0 24 24" version="1.1" xmlns="http://www.w3.org/2000/svg" xmlns:xlink="http://www.w3.org/1999/xlink">
    <title>切片</title>
    <g id="页面-1" stroke="none" stroke-width="1" fill="none" fill-rule="evenodd">
        <g id="用户登录2" transform="translate(-306.000000, -280.000000)" fill="#000000">
            <g id="icon/3删除备份" transform="translate(306.000000, 280.000000)">
                <g id="删除" transform="translate(2.000000, 2.000000)">
                    <circle id="椭圆形" fill-opacity="0.08" cx="10" cy="10" r="10"></circle>
                    <path d="M14.7632402,5.23675984 C15.0789199,5.55243963 15.0789199,6.06425769 14.7632402,6.37993748 L11.1431776,10 L14.7632402,13.6200625 C15.0789199,13.9357423 15.0789199,14.4475604 14.7632402,14.7632402 C14.4475604,15.0789199 13.9357423,15.0789199 13.6200625,14.7632402 L10,11.1431776 L6.37993748,14.7632402 C6.06425769,15.0789199 5.55243963,15.0789199 5.23675984,14.7632402 C4.92108005,14.4475604 4.92108005,13.9357423 5.23675984,13.6200625 L8.85682236,10 L5.23675984,6.37993748 C4.92108005,6.06425769 4.92108005,5.55243963 5.23675984,5.23675984 C5.55243963,4.92108005 6.06425769,4.92108005 6.37993748,5.23675984 L10.0009526,8.85586971 L13.6200625,5.23675984 C13.9357423,4.92108005 14.4475604,4.92108005 14.7632402,5.23675984 Z" id="路径" fill-opacity="0.2" fill-rule="nonzero"></path>
                </g>
            </g>
        </g>
    </g>
</svg>