<?xml version="1.0" encoding="UTF-8"?>
<svg width="30px" height="14px" viewBox="0 0 30 14" version="1.1" xmlns="http://www.w3.org/2000/svg" xmlns:xlink="http://www.w3.org/1999/xlink">
    <title>公告</title>
    <defs>
        <linearGradient x1="50%" y1="0%" x2="50%" y2="100%" id="linearGradient-1">
            <stop stop-color="#FF834E" offset="0%"></stop>
            <stop stop-color="#F64237" offset="100%"></stop>
        </linearGradient>
    </defs>
    <g id="页面-1" stroke="none" stroke-width="1" fill="none" fill-rule="evenodd">
        <g id="首页-分时" transform="translate(-15.000000, -204.000000)" fill="url(#linearGradient-1)" fill-rule="nonzero">
            <g id="编组-3" transform="translate(15.000000, 200.000000)">
                <g id="公告" transform="translate(0.000000, 4.000000)">
                    <path d="M3.53083108,0 L6.44828662,0 L2.90789011,7 L0,7 L0.260657355,6.47874437 C1.0753223,4.86111111 3.52020283,0.0328453453 3.53083108,0 Z M8.94486333,0 L11.8623189,0 L14.5365256,6.92337838 C14.5520216,6.96736486 14.5597696,6.99290541 14.5597696,7 L11.6518794,7 L8.94486333,0 Z M4.85086015,4.83356259 L7.75875025,4.83356259 L5.71174866,9.52269601 L4.98052484,11.1702583 C4.91108691,11.3300219 4.86786535,11.4323705 4.85086015,11.477304 L10.054453,11.477304 C10.0672069,11.477304 10.1341649,11.7116002 10.255327,12.1801926 L10.7850556,13.9725811 C10.7890125,13.9881576 10.7909909,13.9972972 10.7909909,14 L0.823814961,14 L4.85086015,4.83356259 Z M9.80612395,8.4439862 L12.7331449,8.4439862 L14.3493301,13.3452545 L14.5597696,14 L11.642314,14 C11.642314,13.9908707 11.571559,13.8274023 11.1339697,12.5057214 L9.8532038,8.58096824 C9.83257834,8.51973629 9.81688506,8.47407561 9.80612395,8.4439862 Z M19.1328271,7.87620358 L19.1327232,7.88511111 L19.1375767,7.87861073 L19.1518256,7.87620358 L29.9905007,7.87620358 C29.9968336,7.87620358 30,7.87941311 30,7.88583219 L30,14 L27.2272305,14 L27.2272305,10.8888889 L27.2262111,10.3988996 L19.1327232,10.3988889 L19.1328271,11.477304 L26.2855944,11.4768889 L26.2860633,14 L16.3590382,14 L16.3590382,7.88583219 C16.3590382,7.87941311 16.365371,7.87620358 16.3780367,7.87620358 L19.1328271,7.87620358 Z M24.5569143,0 L24.5569143,0.779917469 L29.9905007,0.779917469 C29.9968336,0.786336543 30,0.792755617 30,0.799174691 L30,3.31224209 L24.5569143,3.31224209 L24.5569143,4.56396149 L30,4.56396149 L30,7.07702889 C30,7.08986703 29.9968336,7.09628611 29.9905007,7.09628611 L16.3400396,7.09628611 L16.3400396,4.56396149 L21.7831254,4.56396149 L21.7831254,3.31224209 L16.2640454,3.31224209 L16.8435013,0.250343879 L19.6077909,0.250343879 L19.5127982,0.779917469 L21.7831254,0.779917469 L21.7831254,0 L24.5569143,0 Z" id="形状"></path>
                </g>
            </g>
        </g>
    </g>
</svg>