<?xml version="1.0" encoding="UTF-8"?>
<svg width="25px" height="24px" viewBox="0 0 25 24" version="1.1" xmlns="http://www.w3.org/2000/svg" xmlns:xlink="http://www.w3.org/1999/xlink">
    <title>切片</title>
    <defs>
        <linearGradient x1="-1.11022302e-14%" y1="50%" x2="100%" y2="50%" id="linearGradient-1">
            <stop stop-color="#FF7641" offset="0%"></stop>
            <stop stop-color="#FF0B40" offset="100%"></stop>
        </linearGradient>
    </defs>
    <g id="页面-1" stroke="none" stroke-width="1" fill="none" fill-rule="evenodd">
        <g id="首页-分时" transform="translate(-50.000000, -1031.000000)">
            <g id="Tabbar/Light/组合" transform="translate(0.000000, 1026.000000)">
                <g id="tab1" transform="translate(50.500000, 5.000000)">
                    <g id="icon/24/消息-选中" transform="translate(0.000000, 0.000000)">
                        <path d="M10.6840874,2.82207745 L3.73706082,7.79185528 C2.89787569,8.39217988 2.4,9.35908787 2.4,10.3892851 L2.4,18.4033268 C2.4,20.1692138 3.83551929,21.6 5.60526315,21.6 L18.3947368,21.6 C20.1644807,21.6 21.6,20.1692138 21.6,18.4033268 L21.6,10.389049 C21.6,9.3589742 21.1020884,8.3921542 20.262934,7.79185161 L13.3159126,2.82207745 C12.5293307,2.25930752 11.4706693,2.25930752 10.6840874,2.82207745 Z" id="路径" fill="url(#linearGradient-1)"></path>
                        <path d="M13,13.4 C14.4101943,13.4 15.6,14.3518445 15.6,15.6 L15.6,18 C15.6,18.3313708 15.3313708,18.6 15,18.6 C14.6686292,18.6 14.4,18.3313708 14.4,18 L14.4,15.6 C14.4,15.0808443 13.7989447,14.6 13,14.6 L11,14.6 C10.2010553,14.6 9.6,15.0808443 9.6,15.6 L9.6,18 C9.6,18.3313708 9.33137085,18.6 9,18.6 C8.66862915,18.6 8.4,18.3313708 8.4,18 L8.4,15.6 C8.4,14.3518445 9.58980565,13.4 11,13.4 L13,13.4 Z" id="路径" fill="#FFFFFF" fill-rule="nonzero"></path>
                    </g>
                </g>
            </g>
        </g>
    </g>
</svg>