<?xml version="1.0" encoding="UTF-8"?>
<svg width="25px" height="24px" viewBox="0 0 25 24" version="1.1" xmlns="http://www.w3.org/2000/svg" xmlns:xlink="http://www.w3.org/1999/xlink">
    <title>切片</title>
    <g id="页面-1" stroke="none" stroke-width="1" fill="none" fill-rule="evenodd">
        <g id="我的" transform="translate(-175.000000, -734.000000)" fill="#333333" fill-rule="nonzero">
            <g id="Tabbar/Light/组合" transform="translate(0.000000, 729.000000)">
                <g id="icon/24/消息-选中" transform="translate(175.500000, 5.000000)">
                    <path d="M12,2 C17.5228475,2 22,6.4771525 22,12 C22,17.5228475 17.5228475,22 12,22 C6.4771525,22 2,17.5228475 2,12 C2,6.4771525 6.4771525,2 12,2 Z M12,3.2 C7.1398942,3.2 3.2,7.1398942 3.2,12 C3.2,16.8601058 7.1398942,20.8 12,20.8 C16.8601058,20.8 20.8,16.8601058 20.8,12 C20.8,7.1398942 16.8601058,3.2 12,3.2 Z M16.4,12.8 C16.7313708,12.8 17,13.0686292 17,13.4 C17,13.7313708 16.7313708,14 16.4,14 L9.057,14.0000058 L10.7192263,15.6627417 C10.9535408,15.8970563 10.9535408,16.2769553 10.7192263,16.5112698 C10.4849117,16.7455844 10.1050127,16.7455844 9.87069813,16.5112698 L7.23092943,13.8730952 C7.09036685,13.7632839 7,13.5921951 7,13.4 C7,13.0853685 7.24217479,12.8273 7.5502888,12.8020299 C7.55509079,12.8023035 7.55942464,12.8019382 7.56376129,12.8016199 L7.58166698,12.8003412 L7.58166698,12.8003412 L16.4,12.8 Z M14.1293019,7.48873016 L16.7690706,10.1269048 C16.9096332,10.2367161 17,10.4078049 17,10.6 C17,10.9146315 16.7578252,11.1727 16.4497112,11.1979701 C16.4449092,11.1976965 16.4405754,11.1980618 16.4362387,11.1983801 L16.418333,11.1996588 L16.418333,11.1996588 L7.6,11.2 C7.26862915,11.2 7,10.9313708 7,10.6 C7,10.2686292 7.26862915,10 7.6,10 L14.943,9.99999423 L13.2807737,8.3372583 C13.0464592,8.10294373 13.0464592,7.72304474 13.2807737,7.48873016 C13.5150883,7.25441559 13.8949873,7.25441559 14.1293019,7.48873016 Z" id="形状结合"></path>
                </g>
            </g>
        </g>
    </g>
</svg>