<?xml version="1.0" encoding="UTF-8"?>
<svg width="25px" height="24px" viewBox="0 0 25 24" version="1.1" xmlns="http://www.w3.org/2000/svg" xmlns:xlink="http://www.w3.org/1999/xlink">
    <title>切片</title>
    <g id="页面-1" stroke="none" stroke-width="1" fill="none" fill-rule="evenodd">
        <g id="首页-分时" transform="translate(-300.000000, -1031.000000)" fill="#333333" fill-rule="nonzero">
            <g id="Tabbar/Light/组合" transform="translate(0.000000, 1026.000000)">
                <g id="icon/24/消息-选中" transform="translate(300.500000, 5.000000)">
                    <path d="M12,2 C13.2375722,2 15.3016986,2.52474482 17.0083029,2.48082528 C19.0247754,2.42893128 20.6507289,1.84817569 21.3860557,2.48082528 C22.1007678,3.09573871 21.4209781,4.95905576 21.3860557,6.95981949 C21.3546399,8.75967842 22,10.6631147 22,12 C22,17.5228475 17.5228475,22 12,22 C6.4771525,22 2,17.5228475 2,12 C2,6.4771525 6.4771525,2 12,2 Z M12,3.2 C7.1398942,3.2 3.2,7.1398942 3.2,12 C3.2,16.8601058 7.1398942,20.8 12,20.8 C16.8601058,20.8 20.8,16.8601058 20.8,12 L20.7945909,11.7760539 C20.7778617,11.4487085 20.7177163,11.0675812 20.552018,10.1513795 L20.5118779,9.93023089 C20.3504164,9.04335154 20.2674507,8.49762602 20.2189817,7.89565448 C20.1922905,7.56415662 20.1808607,7.24697856 20.1862384,6.93887721 C20.1940196,6.49308298 20.2252297,6.08104748 20.2867113,5.5529395 L20.4890662,3.93566305 C20.4994388,3.83147041 20.505303,3.75032833 20.5084329,3.67434113 L20.511166,3.45609679 L20.507,3.378 L20.4849857,3.37753479 C20.320517,3.37685671 19.9642233,3.40026968 19.2770821,3.47874488 L18.2768948,3.59528075 C17.82145,3.64325125 17.4455192,3.66997081 17.0391747,3.6804281 C16.5047063,3.69418267 15.9303969,3.66113493 15.2658881,3.58796512 L14.7160175,3.52140786 L13.2603156,3.31793507 C12.5576271,3.22162488 12.3062616,3.2 12,3.2 Z" id="椭圆形"></path>
                    <path d="M16,13.9 C16.3313708,13.9 16.6,14.1686292 16.6,14.5 C16.6,16.6293489 12.7670518,18.5383531 9.71229441,17.5431275 C9.39722318,17.4404788 9.22502072,17.1018499 9.32766945,16.7867786 C9.43031818,16.4717074 9.76894711,16.2995049 10.0840183,16.4021537 C12.3798377,17.1501208 15.2406311,15.7764184 15.3935916,14.5977235 L15.4,14.5 C15.4,14.1686292 15.6686292,13.9 16,13.9 Z" id="路径"></path>
                </g>
            </g>
        </g>
    </g>
</svg>