<?xml version="1.0" encoding="UTF-8"?>
<svg width="25px" height="24px" viewBox="0 0 25 24" version="1.1" xmlns="http://www.w3.org/2000/svg" xmlns:xlink="http://www.w3.org/1999/xlink">
    <title>切片</title>
    <g id="页面-1" stroke="none" stroke-width="1" fill="none" fill-rule="evenodd">
        <g id="我的" transform="translate(-50.000000, -734.000000)" fill="#333333" fill-rule="nonzero">
            <g id="Tabbar/Light/组合" transform="translate(0.000000, 729.000000)">
                <g id="icon/24/消息-选中" transform="translate(50.500000, 5.000000)">
                    <path d="M10.6840874,2.82207745 L3.73706082,7.79185528 C2.89787569,8.39217988 2.4,9.35908787 2.4,10.3892851 L2.4,18.4033268 C2.4,20.1692138 3.83551929,21.6 5.60526315,21.6 L18.3947368,21.6 C20.1644807,21.6 21.6,20.1692138 21.6,18.4033268 L21.6,10.389049 C21.6,9.3589742 21.1020884,8.3921542 20.262934,7.79185161 L13.3159126,2.82207745 C12.5293307,2.25930752 11.4706693,2.25930752 10.6840874,2.82207745 Z M12.6176664,3.79801405 L19.564745,8.76782913 C20.0891958,9.14300341 20.4,9.7465076 20.4,10.389049 L20.4,18.4033268 C20.4,19.5055833 19.5026246,20.4 18.3947368,20.4 L5.60526315,20.4 C4.49737544,20.4 3.6,19.5055833 3.6,18.4033268 L3.6,10.3892851 C3.6,9.74659153 3.91079238,9.14301188 4.43524982,8.7678328 L11.3823076,3.79803268 C11.7513518,3.53399532 12.2486482,3.53399532 12.6176664,3.79801405 Z" id="路径"></path>
                    <path d="M13,13.4 C14.4101943,13.4 15.6,14.3518445 15.6,15.6 L15.6,18 C15.6,18.3313708 15.3313708,18.6 15,18.6 C14.6686292,18.6 14.4,18.3313708 14.4,18 L14.4,15.6 C14.4,15.0808443 13.7989447,14.6 13,14.6 L11,14.6 C10.2010553,14.6 9.6,15.0808443 9.6,15.6 L9.6,18 C9.6,18.3313708 9.33137085,18.6 9,18.6 C8.66862915,18.6 8.4,18.3313708 8.4,18 L8.4,15.6 C8.4,14.3518445 9.58980565,13.4 11,13.4 L13,13.4 Z" id="路径"></path>
                </g>
            </g>
        </g>
    </g>
</svg>