<?xml version="1.0" encoding="UTF-8"?>
<svg width="25px" height="24px" viewBox="0 0 25 24" version="1.1" xmlns="http://www.w3.org/2000/svg" xmlns:xlink="http://www.w3.org/1999/xlink">
    <title>切片</title>
    <defs>
        <linearGradient x1="-1.11022302e-14%" y1="50%" x2="100%" y2="50%" id="linearGradient-1">
            <stop stop-color="#FF7641" offset="0%"></stop>
            <stop stop-color="#FF0B40" offset="100%"></stop>
        </linearGradient>
    </defs>
    <g id="页面-1" stroke="none" stroke-width="1" fill="none" fill-rule="evenodd">
        <g id="我的" transform="translate(-300.000000, -734.000000)">
            <g id="Tabbar/Light/组合" transform="translate(0.000000, 729.000000)">
                <g id="icon/24/消息-选中" transform="translate(300.500000, 5.000000)">
                    <path d="M12,2 C13.2375722,2 15.3016986,2.52474482 17.0083029,2.48082528 C19.0247754,2.42893128 20.6507289,1.84817569 21.3860557,2.48082528 C22.1007678,3.09573871 21.4209781,4.95905576 21.3860557,6.95981949 C21.3546399,8.75967842 22,10.6631147 22,12 C22,17.5228475 17.5228475,22 12,22 C6.4771525,22 2,17.5228475 2,12 C2,6.4771525 6.4771525,2 12,2 Z" id="椭圆形" fill="url(#linearGradient-1)"></path>
                    <path d="M16,13.9 C16.3313708,13.9 16.6,14.1686292 16.6,14.5 C16.6,16.6293489 12.7670518,18.5383531 9.71229441,17.5431275 C9.39722318,17.4404788 9.22502072,17.1018499 9.32766945,16.7867786 C9.43031818,16.4717074 9.76894711,16.2995049 10.0840183,16.4021537 C12.3798377,17.1501208 15.2406311,15.7764184 15.3935916,14.5977235 L15.4,14.5 C15.4,14.1686292 15.6686292,13.9 16,13.9 Z" id="路径" fill="#FFFFFF" fill-rule="nonzero"></path>
                </g>
            </g>
        </g>
    </g>
</svg>