<?xml version="1.0" encoding="UTF-8"?>
<svg width="25px" height="24px" viewBox="0 0 25 24" version="1.1" xmlns="http://www.w3.org/2000/svg" xmlns:xlink="http://www.w3.org/1999/xlink">
    <title>切片</title>
    <defs>
        <linearGradient x1="-1.11022302e-14%" y1="50%" x2="100%" y2="50%" id="linearGradient-1">
            <stop stop-color="#FF7641" offset="0%"></stop>
            <stop stop-color="#FF0B40" offset="100%"></stop>
        </linearGradient>
    </defs>
    <g id="页面-1" stroke="none" stroke-width="1" fill="none" fill-rule="evenodd">
        <g id="交易" transform="translate(-175.000000, -734.000000)">
            <g id="Tabbar/Light/组合" transform="translate(0.000000, 729.000000)">
                <g id="icon/24/消息-选中" transform="translate(175.500000, 5.000000)">
                    <path d="M12,2 C17.5228475,2 22,6.4771525 22,12 C22,17.5228475 17.5228475,22 12,22 C6.4771525,22 2,17.5228475 2,12 C2,6.4771525 6.4771525,2 12,2 Z" id="路径" fill="url(#linearGradient-1)"></path>
                    <path d="M14.1293019,7.48873016 L16.7690706,10.1269048 C16.9096332,10.2367161 17,10.4078049 17,10.6 C17,10.9146315 16.7578252,11.1727 16.4497112,11.1979701 C16.4449092,11.1976965 16.4405754,11.1980618 16.4362387,11.1983801 C16.4245102,11.19963 16.4122983,11.2 16.4,11.2 L7.6,11.2 C7.26862915,11.2 7,10.9313708 7,10.6 C7,10.2686292 7.26862915,10 7.6,10 L14.943,9.99999423 L13.2807737,8.3372583 C13.0464592,8.10294373 13.0464592,7.72304474 13.2807737,7.48873016 C13.5150883,7.25441559 13.8949873,7.25441559 14.1293019,7.48873016 Z" id="形状结合" fill="#FFFFFF"></path>
                    <path d="M14.1293019,12.9757359 L16.7690706,15.6139105 C16.9096332,15.7237219 17,15.8948107 17,16.0870058 C17,16.4016373 16.7578252,16.6597058 16.4497112,16.6849758 C16.4449092,16.6847022 16.4405754,16.6850675 16.4362387,16.6853859 C16.4245102,16.6866358 16.4122983,16.6870058 16.4,16.6870058 L7.6,16.6870058 C7.26862915,16.6870058 7,16.4183766 7,16.0870058 C7,15.7556349 7.26862915,15.4870058 7.6,15.4870058 L14.943,15.487 L13.2807737,13.8242641 C13.0464592,13.5899495 13.0464592,13.2100505 13.2807737,12.9757359 C13.5150883,12.7414214 13.8949873,12.7414214 14.1293019,12.9757359 Z" id="形状结合" fill="#FFFFFF" transform="translate(12.000000, 14.743503) scale(-1, -1) translate(-12.000000, -14.743503) "></path>
                </g>
            </g>
        </g>
    </g>
</svg>